# xmcd
#
# Track frame offsets: 
#        150
#        3280
#        19019
#        38162
#        51089
#        59982
#        77201
#        94121
#        106286
#        119587
#        142548
#        156671
#        168658
#        190719
#        214385
#        228300
#        251733
#        279836
#
# Disc length: 3872 seconds
#
# Revision: 0
# Processed by: cddbd v1.5.1PL0 Copyright (c) Steve Scherf et al.
# Submitted via: ExactAudioCopy v0.95a5
#
DISCID=fa0f1e12
DTITLE=The Knitters - Wolfgangs  San Francisco Ca. August 13, 1984
DYEAR=1984
DGENRE=Alt. Rock
TTITLE0=Intro
TTITLE1=Silvers Wings
TTITLE2=Cryin' But My Tears Are Far Away
TTITLE3=New World
TTITLE4=Poor Little Critter
TTITLE5=Long White Cadillac
TTITLE6=Trail Of Time
TTITLE7=Baby Out Of Jail
TTITLE8=Mama Tried
TTITLE9=Love Shack
TTITLE10=Someone Like You
TTITLE11=Poor Old Heartsick Me
TTITLE12=I Must Not Think Bad Thoughts
TTITLE13=The Call Of The Wreckin' Ball
TTITLE14=Tennessee Border
TTITLE15=Rock Island Line
TTITLE16=Walkin' Cane
TTITLE17=Skip To My Lou
EXTD=The Knitters  Wolfgangs  San Francisco Ca. 1984-8-13\n \n2 Nakami
EXTD=chi 300s>SONY TC-D5m(Dolby B]\nplybck Nakamichi Dragon(Dolby Deco
EXTD=ded)>Apple G4(RME A/D, Peak editing)>\nXact prep> upload from fil
EXTD=es\n\n01. Intro\n02. Silvers Wings\n03. Cryin' But My Tears Are F
EXTD=ar Away\n04. New World\n05. Poor Little Critter\n06. Long White C
EXTD=adillac\n07. Trail of Time\n08. Baby Out Of Jail\n09. Mama Tried\n
EXTD=10. Love Shack\n11. Someone Like You\n12. Poor Old Heartsick Me\n
EXTD=13. I Must Not Think Bad Thoughts\n14. The Call Of The Wreckin' B
EXTD=all\n15. Tennessee Border \n16. Rock Island Line\n17. Walkin' Can
EXTD=e\n18. Skip To My Lou
EXTT0=
EXTT1=
EXTT2=
EXTT3=
EXTT4=
EXTT5=
EXTT6=
EXTT7=
EXTT8=
EXTT9=
EXTT10=
EXTT11=
EXTT12=
EXTT13=
EXTT14=
EXTT15=
EXTT16=
EXTT17=
PLAYORDER=
